{
    "asset": {
        "generator": "COLLADA2GLTF",
        "version": "2.0"
    },
    "scenes": [
        {
            "nodes": [
                0
            ]
        }
    ],
    "scene": 0,
    "nodes": [
        {
            "children": [
                1
            ],
            "matrix": [
                1.0,
                0.0,
                0.0,
                0.0,
                0.0,
                0.0,
                -1.0,
                0.0,
                0.0,
                1.0,
                0.0,
                0.0,
                0.0,
                0.0,
                0.0,
                1.0
            ],
            "name": "Z_UP"
        },
        {
            "mesh": 0,
            "matrix": [
                0.460932195186615,
                0.0,
                0.0,
                0.0,
                0.0,
                0.675725519657135,
                0.0,
                0.0,
                0.0,
                0.0,
                -0.07930509001016617,
                0.0,
                -1.9316550493240357,
                -0.12736620008945466,
                0.3418787121772766,
                1.0
            ],
            "name": "Cube_001"
        }
    ],
    "meshes": [
        {
            "primitives": [
                {
                    "attributes": {
                        "POSITION": 1
                    },
                    "indices": 0,
                    "mode": 1
                },
                {
                    "attributes": {
                        "NORMAL": 3,
                        "POSITION": 4
                    },
                    "indices": 2,
                    "mode": 4
                }
            ],
            "name": "Cube.028"
        }
    ],
    "accessors": [
        {
            "bufferView": 0,
            "byteOffset": 0,
            "componentType": 5123,
            "count": 2,
            "max": [
                1
            ],
            "min": [
                0
            ],
            "type": "SCALAR"
        },
        {
            "bufferView": 1,
            "byteOffset": 0,
            "componentType": 5126,
            "count": 2,
            "max": [
                0.0,
                1.293653964996338,
                2.6005399227142336
            ],
            "min": [
                0.0,
                -0.4133771061897278,
                2.6005399227142336
            ],
            "type": "VEC3"
        },
        {
            "bufferView": 2,
            "byteOffset": 0,
            "componentType": 5125,
            "count": 110904,
            "max": [
                108479
            ],
            "min": [
                0
            ],
            "type": "SCALAR"
        },
        {
            "bufferView": 1,
            "byteOffset": 24,
            "componentType": 5126,
            "count": 108480,
            "max": [
                1.0,
                1.0,
                1.0
            ],
            "min": [
                -1.0,
                -1.0,
                -1.0
            ],
            "type": "VEC3"
        },
        {
            "bufferView": 1,
            "byteOffset": 1301784,
            "componentType": 5126,
            "count": 108480,
            "max": [
                1.9665019512176512,
                3.638241052627563,
                4.300852775573731
            ],
            "min": [
                -1.9665019512176512,
                -0.9337247014045716,
                -18.354148864746099
            ],
            "type": "VEC3"
        }
    ],
    "bufferViews": [
        {
            "buffer": 0,
            "byteOffset": 3047160,
            "byteLength": 4,
            "target": 34963
        },
        {
            "buffer": 0,
            "byteOffset": 0,
            "byteLength": 2603544,
            "byteStride": 12,
            "target": 34962
        },
        {
            "buffer": 0,
            "byteOffset": 2603544,
            "byteLength": 443616,
            "target": 34963
        }
    ],
    "buffers": [
        {
            "byteLength": 3047164,
            "uri": "data:application/octet-stream;base64,"
        }
    ]
}
